<svg xmlns="http://www.w3.org/2000/svg"  viewBox="0 0 80 80" width="80px" height="80px"><path d="M 40 7 C 21.786436 7 7 21.786449 7 40 C 7 58.213551 21.786436 73 40 73 C 58.213564 73 73 58.213551 73 40 C 73 21.786449 58.213564 7 40 7 z M 40 9 C 57.132684 9 71 22.867328 71 40 C 71 57.132672 57.132684 71 40 71 C 22.867316 71 9 57.132672 9 40 C 9 22.867328 22.867316 9 40 9 z M 40 11 C 39.45 11 39 11.45 39 12 C 39 12.55 39.45 13 40 13 C 40.55 13 41 12.55 41 12 C 41 11.45 40.55 11 40 11 z M 35.871094 11.289062 C 35.331094 11.369063 34.939531 11.869922 35.019531 12.419922 C 35.099531 12.919922 35.519531 13.28025 36.019531 13.28125 C 36.056773 13.28125 36.103076 13.278409 36.150391 13.269531 C 36.701391 13.189531 37.081953 12.690625 37.001953 12.140625 C 36.931953 11.590625 36.421094 11.209062 35.871094 11.289062 z M 44.119141 11.289062 C 43.579141 11.209063 43.069234 11.590625 42.990234 12.140625 C 42.910234 12.680625 43.289844 13.189531 43.839844 13.269531 C 43.889844 13.279531 43.939469 13.279297 43.980469 13.279297 C 44.470469 13.279297 44.900703 12.919922 44.970703 12.419922 C 45.050703 11.869922 44.669141 11.369063 44.119141 11.289062 z M 47.773438 12.132812 C 47.385313 12.174531 47.042187 12.442344 46.929688 12.839844 C 46.769687 13.369844 47.080375 13.929844 47.609375 14.089844 C 47.700375 14.108844 47.789672 14.130859 47.888672 14.130859 C 48.318672 14.130859 48.719609 13.840156 48.849609 13.410156 C 48.999609 12.880156 48.699922 12.318922 48.169922 12.169922 C 48.037422 12.129922 47.902812 12.118906 47.773438 12.132812 z M 32.224609 12.134766 C 32.096016 12.12 31.962578 12.129922 31.830078 12.169922 C 31.300078 12.318922 30.990391 12.880156 31.150391 13.410156 C 31.280391 13.840156 31.679375 14.130859 32.109375 14.130859 C 32.199375 14.130859 32.300625 14.109844 32.390625 14.089844 C 32.921625 13.929844 33.220312 13.370609 33.070312 12.849609 C 32.950313 12.451359 32.610391 12.179062 32.224609 12.134766 z M 51.660156 13.519531 C 51.268281 13.508422 50.893203 13.726875 50.720703 14.109375 C 50.491703 14.609375 50.710703 15.200688 51.220703 15.429688 C 51.350703 15.489688 51.490859 15.519531 51.630859 15.519531 C 52.010859 15.519531 52.369062 15.309453 52.539062 14.939453 C 52.769062 14.439453 52.550781 13.839375 52.050781 13.609375 C 51.923281 13.552125 51.790781 13.523234 51.660156 13.519531 z M 28.333984 13.523438 C 28.204766 13.525937 28.074219 13.554375 27.949219 13.609375 C 27.449219 13.849375 27.230937 14.439453 27.460938 14.939453 C 27.620938 15.310453 27.989375 15.520531 28.359375 15.519531 C 28.499375 15.519531 28.649297 15.499688 28.779297 15.429688 C 29.279297 15.200688 29.499531 14.609375 29.269531 14.109375 C 29.097031 13.734375 28.721641 13.515937 28.333984 13.523438 z M 55.306641 15.453125 C 54.919922 15.385156 54.514062 15.545937 54.289062 15.898438 C 53.999063 16.358438 54.129844 16.978297 54.589844 17.279297 C 54.759844 17.389297 54.950859 17.439453 55.130859 17.439453 C 55.460859 17.439453 55.781469 17.279516 55.980469 16.978516 C 56.270469 16.518516 56.139688 15.899609 55.679688 15.599609 C 55.562188 15.524609 55.435547 15.475781 55.306641 15.453125 z M 24.6875 15.455078 C 24.56 15.476953 24.435313 15.524609 24.320312 15.599609 C 23.850312 15.899609 23.719531 16.518516 24.019531 16.978516 C 24.209531 17.279516 24.529375 17.439453 24.859375 17.439453 C 25.039375 17.439453 25.230391 17.388297 25.400391 17.279297 C 25.860391 16.978297 25.999219 16.369438 25.699219 15.898438 C 25.474219 15.553437 25.07 15.389453 24.6875 15.455078 z M 40.001953 17.085938 C 27.311487 17.085938 17.001953 27.395471 17.001953 40.085938 C 17.001953 52.776404 27.311487 63.085938 40.001953 63.085938 C 43.077735 63.085938 45.967716 62.390103 48.640625 61.289062 L 51.585938 66.001953 A 1.0001 1.0001 0 0 0 52.900391 66.355469 C 55.044062 65.225076 56.975911 64.026241 58.652344 62.757812 A 1.0001 1.0001 0 0 0 58.896484 61.431641 L 49.261719 46.015625 A 1.0001 1.0001 0 0 0 47.884766 45.697266 L 42.267578 49.207031 A 1.0001 1.0001 0 0 0 41.949219 50.585938 L 43.234375 52.642578 C 42.182034 52.920969 41.136586 53.228516 40 53.228516 C 32.729434 53.228516 26.857422 47.356502 26.857422 40.085938 C 26.857422 32.815371 32.729434 26.941406 40 26.941406 C 47.270566 26.941406 53.142578 32.814488 53.142578 40.083984 C 53.142578 42.184583 52.638013 44.158951 51.759766 45.923828 A 1.0001 1.0001 0 0 0 51.808594 46.898438 L 56.400391 54.246094 A 1.0001 1.0001 0 0 0 58.03125 54.335938 C 61.13216 50.419052 63.001953 45.46987 63.001953 40.085938 C 63.001953 27.395471 52.69242 17.085936 40.001953 17.085938 z M 58.261719 17.837891 C 58.006719 17.855391 57.759578 17.969687 57.580078 18.179688 C 57.210078 18.599687 57.259687 19.229844 57.679688 19.589844 C 57.858688 19.749844 58.100078 19.830078 58.330078 19.830078 C 58.610078 19.830078 58.889844 19.719234 59.089844 19.490234 C 59.449844 19.069234 59.399234 18.439078 58.990234 18.080078 C 58.779734 17.900078 58.516719 17.820391 58.261719 17.837891 z M 21.728516 17.84375 C 21.472266 17.825 21.21 17.904844 21 18.089844 C 20.59 18.449844 20.540156 19.08 20.910156 19.5 C 21.100156 19.72 21.380156 19.839844 21.660156 19.839844 C 21.890156 19.839844 22.130312 19.759609 22.320312 19.599609 C 22.730312 19.229609 22.779922 18.599453 22.419922 18.189453 C 22.234922 17.979453 21.984766 17.8625 21.728516 17.84375 z M 40.001953 19.085938 C 51.611487 19.085938 61.001953 28.476403 61.001953 40.085938 C 61.001953 44.482361 59.587695 48.506824 57.277344 51.876953 L 53.757812 46.246094 C 54.607169 44.359013 55.142578 42.291517 55.142578 40.083984 C 55.142578 31.733481 48.351434 24.941406 40 24.941406 C 31.648566 24.941406 24.857422 31.734502 24.857422 40.085938 C 24.857422 48.437371 31.648566 55.228516 40 55.228516 C 41.835146 55.228516 43.583785 54.882427 45.201172 54.287109 A 1.0001 1.0001 0 0 0 45.703125 52.818359 L 44.175781 50.373047 L 48.095703 47.923828 L 56.673828 61.646484 C 55.495818 62.487946 54.184575 63.304422 52.751953 64.095703 L 49.921875 59.564453 A 1.0001 1.0001 0 0 0 48.658203 59.185547 C 46.013267 60.393786 43.094663 61.085938 40.001953 61.085938 C 28.39242 61.085938 19.001953 51.69547 19.001953 40.085938 C 19.001953 28.476403 28.39242 19.085938 40.001953 19.085938 z M 61.226562 20.662109 C 60.971563 20.643359 60.71 20.720891 60.5 20.900391 C 60.08 21.270391 60.039437 21.900547 60.398438 22.310547 C 60.599438 22.540547 60.880156 22.659156 61.160156 22.660156 C 61.389156 22.660156 61.619594 22.580156 61.808594 22.410156 C 62.228594 22.050156 62.280156 21.421953 61.910156 21.001953 C 61.730156 20.796453 61.481562 20.680859 61.226562 20.662109 z M 18.761719 20.667969 C 18.506719 20.685469 18.260078 20.799766 18.080078 21.009766 C 17.720078 21.429766 17.759687 22.059922 18.179688 22.419922 C 18.369688 22.589922 18.599844 22.669922 18.839844 22.669922 C 19.109844 22.669922 19.389844 22.548359 19.589844 22.318359 C 19.949844 21.898359 19.910234 21.269156 19.490234 20.910156 C 19.280234 20.730156 19.016719 20.650469 18.761719 20.667969 z M 63.382812 23.869141 C 63.254062 23.890547 63.127266 23.937266 63.009766 24.009766 C 62.549766 24.309766 62.420938 24.928438 62.710938 25.398438 C 62.899937 25.688437 63.229547 25.850609 63.560547 25.849609 C 63.741547 25.849609 63.929609 25.799219 64.099609 25.699219 C 64.559609 25.398219 64.690625 24.779594 64.390625 24.308594 C 64.173125 23.963594 63.769063 23.804922 63.382812 23.869141 z M 16.613281 23.875 C 16.230781 23.809375 15.824609 23.973359 15.599609 24.318359 C 15.299609 24.789359 15.430391 25.398219 15.900391 25.699219 C 16.060391 25.809219 16.249453 25.859375 16.439453 25.859375 C 16.769453 25.859375 17.089297 25.699437 17.279297 25.398438 C 17.579297 24.938438 17.450469 24.319531 16.980469 24.019531 C 16.865469 23.944531 16.740781 23.896875 16.613281 23.875 z M 65.445312 27.359375 C 65.316094 27.363203 65.185547 27.391719 65.060547 27.449219 C 64.550547 27.678219 64.331547 28.279297 64.560547 28.779297 C 64.729547 29.148297 65.100469 29.359375 65.480469 29.359375 C 65.610469 29.359375 65.760625 29.330531 65.890625 29.269531 C 66.390625 29.040531 66.609859 28.449219 66.380859 27.949219 C 66.208359 27.565969 65.832969 27.347891 65.445312 27.359375 z M 14.552734 27.369141 C 14.162266 27.357281 13.781875 27.576172 13.609375 27.951172 C 13.379375 28.451172 13.609375 29.049531 14.109375 29.269531 C 14.239375 29.339531 14.379531 29.370094 14.519531 29.371094 C 14.899531 29.371094 15.259688 29.15025 15.429688 28.78125 C 15.659687 28.28125 15.439453 27.689937 14.939453 27.460938 C 14.814453 27.403188 14.682891 27.373094 14.552734 27.369141 z M 13.013672 31.113281 C 12.625547 31.158234 12.282422 31.432578 12.169922 31.830078 C 12.009922 32.359078 12.309609 32.909359 12.849609 33.068359 C 12.939609 33.099359 13.030859 33.109375 13.130859 33.109375 C 13.560859 33.109375 13.959844 32.828672 14.089844 32.388672 C 14.239844 31.858672 13.940156 31.308438 13.410156 31.148438 C 13.277656 31.108688 13.143047 31.098297 13.013672 31.113281 z M 66.986328 31.115234 C 66.856953 31.100328 66.722344 31.110641 66.589844 31.150391 C 66.058844 31.300391 65.760156 31.860625 65.910156 32.390625 C 66.040156 32.819625 66.438141 33.108375 66.869141 33.109375 C 66.959141 33.109375 67.058437 33.100313 67.148438 33.070312 C 67.679437 32.911313 67.990078 32.359078 67.830078 31.830078 C 67.717578 31.431828 67.374453 31.159953 66.986328 31.115234 z M 47.386719 32.542969 C 47.20165 32.525835 47.014633 32.526892 46.830078 32.544922 C 46.091858 32.617042 45.380019 32.969266 44.876953 33.580078 L 39.304688 40.347656 L 38.275391 38.894531 C 37.35872 37.598623 35.537541 37.288911 34.246094 38.205078 C 32.954314 39.120527 32.640029 40.938553 33.554688 42.232422 A 1.0001 1.0001 0 0 0 33.554688 42.234375 L 36.769531 46.777344 C 37.289954 47.515119 38.125669 47.965914 39.025391 47.998047 C 39.074171 47.999947 39.110021 48 39.130859 48 C 39.994384 48 40.814546 47.613273 41.363281 46.945312 L 49.339844 37.253906 C 50.349193 36.030544 50.169438 34.190804 48.945312 33.183594 C 48.486066 32.805725 47.941926 32.594369 47.386719 32.542969 z M 47.021484 34.523438 C 47.246265 34.501308 47.479157 34.568338 47.673828 34.728516 C 48.063703 35.049305 48.117526 35.593784 47.796875 35.982422 A 1.0001 1.0001 0 0 0 47.794922 35.982422 L 39.818359 45.673828 A 1.0001 1.0001 0 0 0 39.818359 45.675781 C 39.649142 45.881775 39.397334 46 39.130859 46 C 39.108859 46 39.098309 45.999689 39.105469 46 A 1.0001 1.0001 0 0 0 39.097656 46 C 38.821377 45.9901 38.563874 45.851224 38.404297 45.625 A 1.0001 1.0001 0 0 0 38.404297 45.623047 L 35.1875 41.078125 L 35.189453 41.078125 C 34.898453 40.666478 34.991341 40.126823 35.402344 39.835938 C 35.810414 39.546447 36.350914 39.635959 36.642578 40.048828 A 1.0001 1.0001 0 0 0 36.644531 40.048828 L 38.429688 42.572266 A 1.0001 1.0001 0 0 0 40.017578 42.628906 L 46.421875 34.851562 C 46.581809 34.657375 46.796704 34.545568 47.021484 34.523438 z M 12.419922 35.019531 C 11.879922 34.950531 11.369063 35.329141 11.289062 35.869141 C 11.209063 36.419141 11.590625 36.929766 12.140625 37.009766 C 12.190625 37.009766 12.229297 37.020531 12.279297 37.019531 C 12.769297 37.019531 13.199531 36.660156 13.269531 36.160156 C 13.349531 35.609156 12.969922 35.099531 12.419922 35.019531 z M 67.580078 35.019531 C 67.030078 35.099531 66.648516 35.608438 66.728516 36.148438 C 66.799516 36.648438 67.22875 37.009766 67.71875 37.009766 C 67.75875 37.009766 67.809375 37.01 67.859375 37 C 68.399375 36.92 68.790937 36.419141 68.710938 35.869141 C 68.630938 35.318141 68.120078 34.939531 67.580078 35.019531 z M 12 39 C 11.45 39 11 39.45 11 40 C 11 40.55 11.45 41 12 41 C 12.55 41 13 40.55 13 40 C 13 39.45 12.55 39 12 39 z M 68 39 C 67.45 39 67 39.45 67 40 C 67 40.55 67.45 41 68 41 C 68.55 41 69 40.55 69 40 C 69 39.45 68.55 39 68 39 z M 12.140625 42.990234 C 11.590625 43.069234 11.209062 43.580859 11.289062 44.130859 C 11.359063 44.620859 11.789297 44.979469 12.279297 44.980469 L 12.419922 44.980469 C 12.969922 44.900469 13.349531 44.389844 13.269531 43.839844 C 13.189531 43.299844 12.690625 42.920234 12.140625 42.990234 z M 67.859375 42.990234 C 67.309375 42.920234 66.808516 43.299844 66.728516 43.839844 C 66.648516 44.389844 67.030078 44.890703 67.580078 44.970703 C 67.620078 44.979703 67.670703 44.979469 67.720703 44.980469 C 68.210703 44.980469 68.640938 44.620859 68.710938 44.130859 C 68.790937 43.580859 68.399375 43.069234 67.859375 42.990234 z M 13.244141 46.894531 C 13.115547 46.879688 12.982109 46.889688 12.849609 46.929688 C 12.309609 47.089687 12.009922 47.639922 12.169922 48.169922 C 12.299922 48.608922 12.690859 48.890625 13.130859 48.890625 C 13.220859 48.890625 13.310156 48.879609 13.410156 48.849609 C 13.940156 48.689609 14.239844 48.139375 14.089844 47.609375 C 13.969844 47.211875 13.629922 46.939062 13.244141 46.894531 z M 66.753906 46.894531 C 66.368313 46.939297 66.029406 47.212625 65.910156 47.609375 C 65.760156 48.139375 66.059844 48.689609 66.589844 48.849609 C 66.688844 48.869609 66.779141 48.890625 66.869141 48.890625 C 67.308141 48.890625 67.700078 48.599922 67.830078 48.169922 C 67.990078 47.639922 67.678438 47.079687 67.148438 46.929688 C 67.016188 46.889688 66.882437 46.879609 66.753906 46.894531 z M 65.503906 50.628906 C 65.114141 50.617797 64.736063 50.838203 64.570312 51.220703 C 64.340312 51.720703 64.560547 52.309063 65.060547 52.539062 C 65.189547 52.599063 65.340469 52.630859 65.480469 52.630859 C 65.850469 52.630859 66.220625 52.420781 66.390625 52.050781 C 66.610625 51.550781 66.390625 50.950703 65.890625 50.720703 C 65.765625 50.663453 65.633828 50.632609 65.503906 50.628906 z M 14.496094 50.638672 C 14.365937 50.642531 14.234375 50.673219 14.109375 50.730469 C 13.609375 50.950469 13.389141 51.550781 13.619141 52.050781 C 13.779141 52.420781 14.149297 52.640625 14.529297 52.640625 C 14.669297 52.640625 14.809453 52.610781 14.939453 52.550781 C 15.439453 52.320781 15.669453 51.720703 15.439453 51.220703 C 15.266953 50.845703 14.886563 50.627094 14.496094 50.638672 z M 63.732422 54.144531 C 63.349922 54.078906 62.945703 54.244844 62.720703 54.589844 C 62.420703 55.059844 62.549531 55.678516 63.019531 55.978516 C 63.188531 56.079516 63.370547 56.129906 63.560547 56.128906 C 63.890547 56.128906 64.211391 55.969687 64.400391 55.679688 C 64.701391 55.209688 64.559609 54.589062 64.099609 54.289062 C 63.984609 54.214062 63.859922 54.166406 63.732422 54.144531 z M 16.273438 54.154297 C 16.144687 54.176953 16.017891 54.225781 15.900391 54.300781 C 15.440391 54.600781 15.299609 55.219453 15.599609 55.689453 L 15.599609 55.679688 C 15.789609 55.978688 16.119219 56.140625 16.449219 56.140625 C 16.629219 56.140625 16.820234 56.090469 16.990234 55.980469 C 17.450234 55.690469 17.579062 55.059609 17.289062 54.599609 L 17.279297 54.599609 C 17.061797 54.247109 16.659688 54.086328 16.273438 54.154297 z M 61.091797 57.333984 C 60.836922 57.352734 60.589656 57.469687 60.410156 57.679688 C 60.050156 58.089687 60.089766 58.719844 60.509766 59.089844 C 60.699766 59.249844 60.930156 59.330078 61.160156 59.330078 C 61.440156 59.330078 61.719922 59.210234 61.919922 58.990234 C 62.279922 58.569234 62.239359 57.939078 61.818359 57.580078 C 61.608359 57.395078 61.346672 57.315234 61.091797 57.333984 z M 18.910156 57.341797 C 18.655156 57.323172 18.394453 57.400078 18.189453 57.580078 C 17.769453 57.939078 17.719844 58.569234 18.089844 58.990234 C 18.279844 59.220234 18.559844 59.339844 18.839844 59.339844 C 19.079844 59.339844 19.31 59.259609 19.5 59.099609 C 19.91 58.729609 19.959609 58.099688 19.599609 57.679688 C 19.414609 57.474187 19.165156 57.360422 18.910156 57.341797 z M 21.591797 60.167969 C 21.336797 60.185469 21.090156 60.299766 20.910156 60.509766 C 20.550156 60.929766 20.599766 61.559922 21.009766 61.919922 C 21.199766 62.079922 21.429922 62.160156 21.669922 62.160156 C 21.949922 62.160156 22.219922 62.048359 22.419922 61.818359 C 22.779922 61.398359 22.740313 60.769156 22.320312 60.410156 C 22.110312 60.230156 21.846797 60.150469 21.591797 60.167969 z M 25.037109 62.572266 C 24.650391 62.504297 24.244531 62.667031 24.019531 63.019531 C 23.719531 63.479531 23.860312 64.098438 24.320312 64.398438 C 24.490312 64.509438 24.679375 64.559594 24.859375 64.558594 C 25.189375 64.558594 25.509219 64.399609 25.699219 64.099609 C 25.999219 63.639609 25.870391 63.01875 25.400391 62.71875 L 25.410156 62.71875 C 25.292656 62.64375 25.166016 62.594922 25.037109 62.572266 z M 28.394531 64.478516 C 28.006875 64.466797 27.633437 64.685547 27.460938 65.060547 C 27.230938 65.560547 27.449219 66.161625 27.949219 66.390625 L 27.949219 66.380859 C 28.089219 66.450859 28.229141 66.479469 28.369141 66.480469 C 28.749141 66.480469 29.109297 66.260625 29.279297 65.890625 C 29.509297 65.390625 29.279297 64.800313 28.779297 64.570312 C 28.654297 64.512812 28.52375 64.482422 28.394531 64.478516 z M 31.996094 65.878906 C 31.610312 65.924844 31.270391 66.192344 31.150391 66.589844 C 30.990391 67.119844 31.300078 67.680078 31.830078 67.830078 C 31.920078 67.859078 32.020328 67.869141 32.111328 67.869141 C 32.541328 67.869141 32.941313 67.588437 33.070312 67.148438 C 33.220313 66.619437 32.920625 66.069156 32.390625 65.910156 C 32.258125 65.872656 32.124688 65.863594 31.996094 65.878906 z M 48.003906 65.878906 C 47.875312 65.863672 47.741875 65.872656 47.609375 65.910156 C 47.079375 66.069156 46.780687 66.619438 46.929688 67.148438 C 47.059688 67.589438 47.460625 67.869141 47.890625 67.869141 C 47.990625 67.869141 48.079922 67.859078 48.169922 67.830078 C 48.700922 67.680078 49.009609 67.119844 48.849609 66.589844 C 48.729609 66.191594 48.389688 65.924609 48.003906 65.878906 z M 36.160156 66.728516 C 35.609156 66.648516 35.098297 67.030078 35.029297 67.580078 C 34.949297 68.120078 35.330859 68.630938 35.880859 68.710938 C 35.926974 68.718777 35.973417 68.719672 36.019531 68.71875 C 36.509531 68.71875 36.939766 68.359375 37.009766 67.859375 C 37.079766 67.309375 36.700156 66.808516 36.160156 66.728516 z M 43.849609 66.728516 C 43.299609 66.808516 42.92 67.309375 43 67.859375 C 43.069 68.359375 43.490469 68.720703 43.980469 68.720703 C 44.030469 68.720703 44.080859 68.720938 44.130859 68.710938 C 44.670859 68.630938 45.050469 68.120078 44.980469 67.580078 C 44.900469 67.030078 44.389609 66.648516 43.849609 66.728516 z M 40 67 C 39.45 67 39 67.45 39 68 C 39 68.55 39.45 69 40 69 C 40.55 69 41 68.55 41 68 C 41 67.45 40.55 67 40 67 z"/></svg>