<svg xmlns="http://www.w3.org/2000/svg"  viewBox="0 0 50 50" width="50px" height="50px"><path d="M 25 14 C 18.171088 14 11.985069 15.293359 7.4628906 17.416016 C 2.9407126 19.538672 -1.1842379e-15 22.53652 0 26 C 0 29.46348 2.9407126 32.461328 7.4628906 34.583984 C 11.985069 36.706641 18.171088 38 25 38 C 31.828912 38 38.014931 36.706641 42.537109 34.583984 C 47.059287 32.461328 50 29.46348 50 26 C 50 22.53652 47.059287 19.538672 42.537109 17.416016 C 38.014931 15.293359 31.828912 14 25 14 z M 25 15 C 31.702074 15 37.766258 16.280788 42.111328 18.320312 C 46.456398 20.359837 49 23.112205 49 26 C 49 28.887795 46.456398 31.640163 42.111328 33.679688 C 37.766258 35.719212 31.702074 37 25 37 C 18.297926 37 12.233742 35.719212 7.8886719 33.679688 C 3.5436016 31.640163 1 28.887795 1 26 C 1 23.112205 3.5436016 20.359837 7.8886719 18.320312 C 12.233742 16.280788 18.297926 15 25 15 z M 25 16 C 18.729746 16 13.052138 17.067655 8.8964844 18.822266 C 6.8186575 19.699571 5.1170809 20.748309 3.9140625 21.949219 C 2.7110441 23.150128 2 24.528325 2 26 C 2 27.471675 2.7110441 28.849872 3.9140625 30.050781 C 5.1170809 31.251691 6.8186575 32.300429 8.8964844 33.177734 C 13.052138 34.932345 18.729746 36 25 36 C 31.270254 36 36.947862 34.932345 41.103516 33.177734 C 43.181342 32.300429 44.882919 31.251691 46.085938 30.050781 C 47.288956 28.849872 48 27.471675 48 26 C 48 24.528325 47.288955 23.150128 46.085938 21.949219 C 44.882919 20.748309 43.181342 19.699571 41.103516 18.822266 C 36.947862 17.067655 31.270254 16 25 16 z M 25 17 C 31.156161 17 36.727106 18.058475 40.714844 19.742188 C 42.708713 20.584043 44.304804 21.584031 45.378906 22.65625 C 46.453009 23.728469 47 24.848322 47 26 C 47 27.151678 46.453009 28.271531 45.378906 29.34375 C 44.304804 30.415969 42.708713 31.415956 40.714844 32.257812 C 36.727106 33.941525 31.156161 35 25 35 C 18.843839 35 13.272894 33.941525 9.2851562 32.257812 C 7.2912875 31.415957 5.6951962 30.415969 4.6210938 29.34375 C 3.5469913 28.271531 3 27.151678 3 26 C 3 24.848322 3.5469913 23.728469 4.6210938 22.65625 C 5.6951962 21.584031 7.2912875 20.584043 9.2851562 19.742188 C 13.272894 18.058475 18.843839 17 25 17 z M 12 20 C 10 20 8.850625 20.638 7.765625 24 C 6.558625 27.738 7.6425781 30.794922 7.6425781 30.794922 L 9 30 C 8.021 27.447 9 25 9 25 C 11.277 27.872 13 25 13 25 C 14.787 22.929 13.651 20 12 20 z M 29.570312 20.410156 C 28.770313 20.350156 27.699219 21.079453 26.949219 23.439453 C 26.199219 25.799453 26.599609 27.810547 26.599609 27.810547 C 26.599609 27.810547 25.869219 28.769531 25.199219 28.519531 C 24.529219 28.259531 25.979844 25.160156 25.589844 24.910156 C 25.209844 24.650156 24.46 25 24 25 L 23 25 C 23 25 23.120547 25.479219 22.310547 27.449219 C 21.490547 29.409219 20.359375 28.609375 20.359375 28.609375 C 22.709375 26.439375 21.990625 24.589844 20.890625 24.589844 C 19.790625 24.589844 19.100078 25.520703 18.830078 26.470703 C 18.560078 27.430703 18.970703 28.609375 18.970703 28.609375 C 16.978703 29.607375 17.890625 26.619141 17.890625 26.619141 L 19 24 C 21.01 22.45 23.439453 23.003906 23.439453 23.003906 L 24 22 C 20.49 21.68 19 23 19 23 L 19.716797 21.027344 L 18.501953 21.027344 L 17.730469 23.570312 C 17.420469 23.900312 15.990234 23.570312 15.990234 23.570312 L 15.679688 24.369141 C 16.039687 24.639141 17.359375 24.619141 17.359375 24.619141 C 17.359375 24.619141 17.280234 25.659297 16.240234 27.529297 C 15.210234 29.389297 14.160156 28.660156 14.160156 28.660156 C 16.480156 26.520156 15.96 25.1 15 25 C 14.05 24.9 13.120469 25.609609 12.730469 26.599609 C 12.350469 27.589609 12.535156 28.392578 12.535156 28.392578 L 11.552734 28.996094 L 12 30 L 13 29 C 13 29 13.350781 29.710938 14.550781 29.710938 C 15.750781 29.710938 16.720703 28.560547 16.720703 28.560547 C 16.720703 28.560547 17.409453 29.710938 18.189453 29.710938 C 18.969453 29.710938 19.550781 29.150391 19.550781 29.150391 C 19.550781 29.150391 20.100625 29.630859 20.890625 29.630859 C 22.930625 29.630859 23.679687 25.910156 23.679688 25.910156 L 24.400391 25.910156 C 23.390391 28.070156 23.85 29.710938 25 29.710938 C 26.15 29.710938 26.980469 28.560547 26.980469 28.560547 C 26.980469 28.560547 27.680391 29.599609 28.400391 29.599609 C 30.380391 29.599609 30.539062 26.189453 30.539062 26.189453 L 31.869141 26.189453 C 30.779141 28.309453 31.640781 29.519531 33.050781 29.519531 C 34.450781 29.519531 34.830078 28.439453 34.830078 28.439453 C 34.830078 28.439453 35.440859 29.710938 36.880859 29.710938 C 38.310859 29.710938 39.109375 28.679688 39.109375 28.679688 C 39.329375 29.759688 41.900391 29.580078 41.900391 29.580078 L 41.900391 28.550781 C 39.110391 29.390781 40.279297 26.550781 40.279297 26.550781 L 41.339844 24.060547 C 43.259844 22.710547 44.005859 23.380859 44.005859 23.380859 L 44.005859 22.230469 C 42.410859 22.230469 41.789062 22.960938 41.789062 22.960938 L 42.160156 21.490234 L 40.960938 21.529297 L 40.259766 23.380859 C 39.839766 23.380859 39 23 39 23 L 38.5 24.029297 L 39.880859 24.410156 C 39.350859 26.820156 37.900938 28.800781 36.960938 28.800781 C 36.010937 28.800781 35.660156 27.449219 35.660156 27.449219 C 35.670156 27.449219 35.880938 27.420391 37.210938 25.150391 C 38.570937 22.820391 38.380156 20.789219 37.660156 20.699219 C 36.940156 20.599219 36.009609 20.900391 35.099609 22.900391 C 34.199609 24.890391 34.480469 27.509766 34.480469 27.509766 C 34.230469 28.259766 33.460547 28.550781 33.060547 28.550781 C 32.660547 28.550781 32.330078 28.209062 32.330078 27.539062 C 32.330078 26.869062 33.479297 25.519219 33.029297 25.199219 C 32.579297 24.879219 31.990547 25.5 31.310547 25.5 C 30.620547 25.5 30 25 30 25 C 29.95 26.64 28.990391 28.579609 28.400391 28.599609 C 27.810391 28.609609 27.779297 27.529297 27.779297 27.529297 C 27.779297 27.529297 28.400703 26.350312 29.470703 24.570312 C 30.540703 22.800313 30.370312 20.470156 29.570312 20.410156 z M 11.642578 20.990234 C 11.766264 20.983377 11.88675 20.98675 12 21 C 12.482 21.057 13.415937 21.910188 12.585938 23.867188 C 11.755937 25.825187 9.1288437 25.156062 9.4648438 23.164062 C 9.7264687 21.610937 10.776779 21.038236 11.642578 20.990234 z M 29.230469 21.410156 C 29.520469 21.410156 29.470469 22.450234 29.230469 23.240234 C 28.990469 24.040234 28.109766 26.369141 27.509766 26.369141 C 27.309766 26.369141 27.410312 24.95 27.820312 23.5 C 28.240313 22.05 28.940469 21.410156 29.230469 21.410156 z M 37.220703 21.599609 C 37.510703 21.599609 37.540781 22.399219 37.300781 23.199219 C 37.060781 23.989219 35.910937 26.369141 35.460938 26.369141 C 35.270938 26.369141 35.369297 24.95 35.779297 23.5 C 36.199297 22.05 36.940703 21.599609 37.220703 21.599609 z M 33.535156 22.699219 A 0.666 0.915 32.471 0 0 32.759766 23.193359 A 0.666 0.915 32.471 1 0 33.882812 23.908203 A 0.666 0.915 32.471 0 0 33.535156 22.699219 z M 20.566406 25.412109 C 20.616074 25.407751 20.667578 25.412813 20.720703 25.429688 C 21.790703 25.759688 20.269375 27.779297 19.859375 27.779297 C 19.475 27.779297 19.821387 25.477478 20.566406 25.412109 z M 14.507812 25.710938 C 14.557903 25.710476 14.608906 25.720234 14.660156 25.740234 C 15.480156 26.060234 13.860703 28.070703 13.470703 27.970703 C 13.161328 27.886328 13.756458 25.717859 14.507812 25.710938 z"/></svg>