<svg xmlns="http://www.w3.org/2000/svg"  viewBox="0 0 50 50" width="50px" height="50px"><path d="M 25 1 L 4.4140625 21.585938 C 3.5090625 22.490938 3 23.719 3 25 C 3 26.281 3.5090625 27.509062 4.4140625 28.414062 L 25 49 L 45.585938 28.414062 C 46.490938 27.509062 47 26.281 47 25 C 47 23.719 46.490938 22.490938 45.585938 21.585938 L 25 1 z M 25 5 L 42 22 L 25 20 L 8 22 L 25 5 z M 24 9 L 13 20 L 23 19 L 24 9 z M 26 9 L 27 19 L 37 20 L 26 9 z M 24.578125 22 L 24.914062 22 L 25.273438 22 L 25.609375 22 L 26.414062 27 L 25.611328 27 L 25.503906 26.220703 L 24.685547 26.220703 L 24.576172 27 L 23.773438 27 L 24.578125 22 z M 26.710938 22.146484 L 29.035156 22.380859 L 29.035156 23.351562 L 28.265625 23.273438 L 28.265625 27 L 27.480469 27 L 27.480469 23.195312 L 26.710938 23.117188 L 26.710938 22.146484 z M 22.335938 22.175781 L 23.029297 22.175781 L 23.029297 27 L 22.371094 27 L 22.365234 27.003906 L 22.363281 27 L 22.335938 27 L 22.335938 26.912109 L 21.611328 24.720703 L 21.611328 27 L 20.916016 27 L 20.916016 22.361328 L 21.611328 22.361328 L 22.335938 24.615234 L 22.335938 22.175781 z M 29.746094 22.548828 L 30.53125 22.548828 L 30.53125 27 L 29.746094 27 L 29.746094 22.548828 z M 17.828125 22.662109 L 17.908203 22.662109 L 18.523438 22.662109 L 19.253906 22.662109 C 19.637906 22.662109 19.947266 22.973422 19.947266 23.357422 L 19.947266 24.523438 C 19.947266 24.855438 19.710391 25.119453 19.400391 25.189453 L 20.275391 27.003906 L 19.429688 27.003906 L 18.570312 25.21875 L 18.523438 25.21875 L 18.523438 27 L 17.828125 27 L 17.828125 22.662109 z M 32.046875 22.849609 L 33.265625 22.849609 C 33.541625 22.849609 33.765625 23.09925 33.765625 23.40625 L 33.765625 26.443359 C 33.765625 26.750359 33.541625 26.998047 33.265625 26.998047 L 32.046875 26.998047 C 31.770875 26.999047 31.546875 26.750359 31.546875 26.443359 L 31.546875 23.40625 C 31.546875 23.09925 31.770875 22.849609 32.046875 22.849609 z M 16.880859 22.951172 L 16.880859 23.724609 L 15.833984 23.824219 L 15.833984 24.578125 L 16.880859 24.550781 L 16.880859 25.324219 L 15.832031 25.353516 L 15.832031 26.226562 L 16.880859 26.226562 L 16.880859 27 L 15.832031 27 L 15.189453 27 L 15.138672 27 L 15.138672 23.892578 L 15.138672 23.660156 L 15.138672 23.117188 L 16.880859 22.951172 z M 34.617188 23.089844 L 35.3125 23.089844 L 35.912109 24.775391 L 35.912109 23.267578 L 36.607422 23.267578 L 36.607422 27 L 35.912109 27 L 35.3125 25.302734 L 35.3125 27 L 34.617188 27 L 34.617188 23.089844 z M 14.414062 23.222656 L 14.414062 23.996094 L 13.796875 24.070312 L 13.796875 27 L 13.101562 27 L 13.101562 24.15625 L 12.484375 24.230469 L 12.484375 23.455078 L 14.414062 23.222656 z M 25.095703 23.287109 L 24.826172 25.21875 L 25.363281 25.21875 L 25.095703 23.287109 z M 18.523438 23.435547 L 18.523438 24.443359 L 19.253906 24.443359 L 19.253906 23.435547 L 18.523438 23.435547 z M 37.933594 23.515625 L 38.378906 23.515625 L 38.628906 23.515625 L 39.074219 23.515625 L 39.673828 27 L 38.978516 27 L 38.861328 26.324219 L 38.146484 26.324219 L 38.029297 27 L 37.333984 27 L 37.574219 25.599609 L 37.574219 25.568359 L 37.580078 25.568359 L 37.933594 23.515625 z M 8.1679688 23.660156 L 8.9511719 23.660156 L 8.9511719 27 L 8.1679688 27 L 8.1679688 23.660156 z M 9.9160156 23.660156 L 10.611328 23.660156 L 11.146484 24.990234 L 11.146484 23.660156 L 11.841797 23.660156 L 11.841797 27 L 11.146484 27 L 10.611328 25.658203 L 10.611328 27 L 9.9160156 27 L 9.9160156 23.660156 z M 32.242188 23.660156 L 32.242188 26.103516 L 33.070312 26.103516 L 33.070312 23.660156 L 32.242188 23.660156 z M 40.150391 23.660156 L 40.935547 23.660156 L 40.935547 26.126953 L 42 26.126953 L 42 27 L 40.935547 27 L 40.222656 27 L 40.150391 27 L 40.150391 23.660156 z M 38.503906 24.240234 L 38.275391 25.566406 L 38.730469 25.566406 L 38.503906 24.240234 z M 8 28 L 10 28 L 11.589844 28 L 22.849609 28 L 27.080078 28 L 38.339844 28 L 40 28 L 42 28 L 25 45 L 8 28 z M 13 30 L 22 39 L 23 30 L 13 30 z M 27 30 L 28 39 L 37 30 L 27 30 z"/></svg>