<?xml version="1.0"?><svg xmlns="http://www.w3.org/2000/svg"  viewBox="0 0 24 24" width="24px" height="24px">    <path d="M 6.2695312 2 C 3.9145313 2 2 3.9155313 2 6.2695312 L 2 17.730469 C 2 20.085469 3.9145313 22 6.2695312 22 L 17.730469 22 C 20.084469 22 22 20.085469 22 17.730469 L 22 6.2695312 C 22 3.9155313 20.085469 2 17.730469 2 L 6.2695312 2 z M 7.0429688 6 L 16.958984 6 C 17.533984 6 18 6.4669688 18 7.0429688 L 18 16.957031 C 18 17.533031 17.533031 18 16.957031 18 L 7.0429688 18 C 6.4669688 18 6 17.533031 6 16.957031 L 6 7.0429688 C 6 6.4669688 6.4669688 6 7.0429688 6 z M 9 9 L 9 15 L 15 15 L 15 9 L 9 9 z"/></svg>